<?xml version="1.0" standalone="no"?>
<!DOCTYPE svg PUBLIC "-//W3C//DTD SVG 1.1//EN" "http://www.w3.org/Graphics/SVG/1.1/DTD/svg11.dtd">
<svg version="1.1" xmlns="http://www.w3.org/2000/svg" viewBox="0 0 740 490" width="2220" height="1470"><!-- svg-source:excalidraw --><metadata></metadata><defs><style class="style-fonts">
      </style></defs><rect x="0" y="0" width="740" height="490" fill="#ffffff"></rect><g transform="translate(230 10) rotate(0 175 15)"><text x="0" y="21.144" font-family="Segoe UI Emoji" font-size="24px" fill="#1e1e1e" text-anchor="start" style="white-space: pre;" direction="ltr" dominant-baseline="alphabetic">IXO Oracle — Architecture</text></g><g stroke-opacity="0.35" fill-opacity="0.35" stroke-linecap="round" transform="translate(10 80) rotate(0 70 90)"><path d="M32 0 C51.98 -0.26, 62.26 0.95, 108 0 C132.09 -2.71, 140.43 14.22, 140 32 C137.42 69.98, 136.02 109.96, 140 148 C137.73 172.64, 131.56 177.97, 108 180 C83 179.99, 59.47 178.79, 32 180 C7.68 177.22, 0.36 171.72, 0 148 C-1.48 117.37, 1.83 94.78, 0 32 C2.2 9.91, 9.94 -0.48, 32 0" stroke="none" stroke-width="0" fill="#dbe4ff"></path><path d="M32 0 C48.06 0.81, 62.08 1.01, 108 0 M32 0 C52.87 -0.48, 73.11 0.73, 108 0 M108 0 C128.04 0.53, 140.88 12.29, 140 32 M108 0 C129.53 0.56, 138.67 12.4, 140 32 M140 32 C141 55.48, 140.56 83.69, 140 148 M140 32 C138.61 76.87, 139.36 121.78, 140 148 M140 148 C140.6 167.73, 129.82 178.28, 108 180 M140 148 C138.31 169.4, 130.27 180.81, 108 180 M108 180 C92.66 180.54, 76.25 180.56, 32 180 M108 180 C91.4 181.46, 74.96 180.81, 32 180 M32 180 C8.78 179.71, -0.18 169.86, 0 148 M32 180 C12.5 179.98, 2.16 169.43, 0 148 M0 148 C-1.56 114.45, 0.42 79.93, 0 32 M0 148 C-0.71 116.57, 0.51 83.2, 0 32 M0 32 C0.44 12.66, 9.12 -1.31, 32 0 M0 32 C-0.62 8.6, 11.68 2.27, 32 0" stroke="#4a9eed" stroke-width="1" fill="none"></path></g><g transform="translate(40 86) rotate(0 25 10)"><text x="0" y="14.096" font-family="Segoe UI Emoji" font-size="16px" fill="#2563eb" text-anchor="start" style="white-space: pre;" direction="ltr" dominant-baseline="alphabetic">Users</text></g><g stroke-linecap="round" transform="translate(25 115) rotate(0 55 20)"><path d="M10 0 C33.06 -0.39, 46.42 0.82, 100 0 C109.43 -2.71, 110.43 6.89, 110 10 C108.24 16.75, 106.84 25.49, 110 30 C107.73 39.98, 108.89 37.97, 100 40 C70.31 39.88, 42.08 38.68, 10 40 C0.35 37.22, 0.36 39.06, 0 30 C-2.09 22.72, 1.23 23.48, 0 10 C2.2 2.58, 2.61 -0.48, 10 0" stroke="none" stroke-width="0" fill="#a5d8ff"></path><path d="M10 0 C28.86 0.78, 45.68 0.98, 100 0 M10 0 C34.68 -0.43, 58.73 0.79, 100 0 M100 0 C105.37 0.53, 110.88 4.96, 110 10 M100 0 C106.87 0.56, 108.67 5.06, 110 10 M110 10 C111.44 12.6, 111.01 19.93, 110 30 M110 10 C109.4 17.47, 110.15 24.99, 110 30 M110 30 C110.6 35.07, 107.15 38.28, 100 40 M110 30 C108.31 36.73, 107.6 40.81, 100 40 M100 40 C81.64 40.68, 62.21 40.7, 10 40 M100 40 C80.37 41.59, 60.92 40.94, 10 40 M10 40 C1.45 39.71, -0.18 37.19, 0 30 M10 40 C5.16 39.98, 2.16 36.76, 0 30 M0 30 C-0.87 23.98, 1.12 17, 0 10 M0 30 C-0.62 25.11, 0.6 18.27, 0 10 M0 10 C0.44 5.33, 1.78 -1.31, 10 0 M0 10 C-0.62 1.26, 4.35 2.27, 10 0" stroke="#4a9eed" stroke-width="2" fill="none"></path></g><g transform="translate(50 125) rotate(0 30 10)"><text x="0" y="14.096" font-family="Segoe UI Emoji" font-size="16px" fill="#1e1e1e" text-anchor="start" style="white-space: pre;" direction="ltr" dominant-baseline="alphabetic">Portal</text></g><g stroke-linecap="round" transform="translate(25 165) rotate(0 55 20)"><path d="M10 0 C33.06 -0.39, 46.42 0.82, 100 0 C109.43 -2.71, 110.43 6.89, 110 10 C108.24 16.75, 106.84 25.49, 110 30 C107.73 39.98, 108.89 37.97, 100 40 C70.31 39.88, 42.08 38.68, 10 40 C0.35 37.22, 0.36 39.06, 0 30 C-2.09 22.72, 1.23 23.48, 0 10 C2.2 2.58, 2.61 -0.48, 10 0" stroke="none" stroke-width="0" fill="#a5d8ff"></path><path d="M10 0 C28.86 0.78, 45.68 0.98, 100 0 M10 0 C34.68 -0.43, 58.73 0.79, 100 0 M100 0 C105.37 0.53, 110.88 4.96, 110 10 M100 0 C106.87 0.56, 108.67 5.06, 110 10 M110 10 C111.44 12.6, 111.01 19.93, 110 30 M110 10 C109.4 17.47, 110.15 24.99, 110 30 M110 30 C110.6 35.07, 107.15 38.28, 100 40 M110 30 C108.31 36.73, 107.6 40.81, 100 40 M100 40 C81.64 40.68, 62.21 40.7, 10 40 M100 40 C80.37 41.59, 60.92 40.94, 10 40 M10 40 C1.45 39.71, -0.18 37.19, 0 30 M10 40 C5.16 39.98, 2.16 36.76, 0 30 M0 30 C-0.87 23.98, 1.12 17, 0 10 M0 30 C-0.62 25.11, 0.6 18.27, 0 10 M0 10 C0.44 5.33, 1.78 -1.31, 10 0 M0 10 C-0.62 1.26, 4.35 2.27, 10 0" stroke="#4a9eed" stroke-width="2" fill="none"></path></g><g transform="translate(55 175) rotate(0 25 10)"><text x="0" y="14.096" font-family="Segoe UI Emoji" font-size="16px" fill="#1e1e1e" text-anchor="start" style="white-space: pre;" direction="ltr" dominant-baseline="alphabetic">Slack</text></g><g stroke-linecap="round" transform="translate(25 215) rotate(0 55 20)"><path d="M10 0 C33.06 -0.39, 46.42 0.82, 100 0 C109.43 -2.71, 110.43 6.89, 110 10 C108.24 16.75, 106.84 25.49, 110 30 C107.73 39.98, 108.89 37.97, 100 40 C70.31 39.88, 42.08 38.68, 10 40 C0.35 37.22, 0.36 39.06, 0 30 C-2.09 22.72, 1.23 23.48, 0 10 C2.2 2.58, 2.61 -0.48, 10 0" stroke="none" stroke-width="0" fill="#a5d8ff"></path><path d="M10 0 C28.86 0.78, 45.68 0.98, 100 0 M10 0 C34.68 -0.43, 58.73 0.79, 100 0 M100 0 C105.37 0.53, 110.88 4.96, 110 10 M100 0 C106.87 0.56, 108.67 5.06, 110 10 M110 10 C111.44 12.6, 111.01 19.93, 110 30 M110 10 C109.4 17.47, 110.15 24.99, 110 30 M110 30 C110.6 35.07, 107.15 38.28, 100 40 M110 30 C108.31 36.73, 107.6 40.81, 100 40 M100 40 C81.64 40.68, 62.21 40.7, 10 40 M100 40 C80.37 41.59, 60.92 40.94, 10 40 M10 40 C1.45 39.71, -0.18 37.19, 0 30 M10 40 C5.16 39.98, 2.16 36.76, 0 30 M0 30 C-0.87 23.98, 1.12 17, 0 10 M0 30 C-0.62 25.11, 0.6 18.27, 0 10 M0 10 C0.44 5.33, 1.78 -1.31, 10 0 M0 10 C-0.62 1.26, 4.35 2.27, 10 0" stroke="#4a9eed" stroke-width="2" fill="none"></path></g><g transform="translate(50 225) rotate(0 30 10)"><text x="0" y="14.096" font-family="Segoe UI Emoji" font-size="16px" fill="#1e1e1e" text-anchor="start" style="white-space: pre;" direction="ltr" dominant-baseline="alphabetic">Matrix</text></g><g stroke-opacity="0.4" fill-opacity="0.4" stroke-linecap="round" transform="translate(230 120) rotate(0 80 85)"><path d="M32 0 C56.38 -0.45, 71.06 0.76, 128 0 C152.09 -2.71, 160.43 14.22, 160 32 C157.51 66.73, 156.11 103.45, 160 138 C157.73 162.64, 151.56 167.97, 128 170 C96.3 169.83, 66.06 168.63, 32 170 C7.68 167.22, 0.36 161.72, 0 138 C-1.55 109.8, 1.77 89.64, 0 32 C2.2 9.91, 9.94 -0.48, 32 0" stroke="none" stroke-width="0" fill="#e5dbff"></path><path d="M32 0 C52.06 0.77, 70.08 0.97, 128 0 M32 0 C58.31 -0.41, 83.99 0.81, 128 0 M128 0 C148.04 0.53, 160.88 12.29, 160 32 M128 0 C149.53 0.56, 158.67 12.4, 160 32 M160 32 C161.05 53.31, 160.61 79.34, 160 138 M160 32 C158.7 72.97, 159.45 113.99, 160 138 M160 138 C160.6 157.73, 149.82 168.28, 128 170 M160 138 C158.31 159.4, 150.27 170.81, 128 170 M128 170 C108.35 170.74, 87.62 170.76, 32 170 M128 170 C107.08 171.64, 86.33 171, 32 170 M32 170 C8.78 169.71, -0.18 159.86, 0 138 M32 170 C12.5 169.98, 2.16 159.43, 0 138 M0 138 C-1.49 107.32, 0.49 75.67, 0 32 M0 138 C-0.7 109.34, 0.52 78.73, 0 32 M0 32 C0.44 12.66, 9.12 -1.31, 32 0 M0 32 C-0.62 8.6, 11.68 2.27, 32 0" stroke="#8b5cf6" stroke-width="1" fill="none"></path></g><g transform="translate(255 126) rotate(0 50 10)"><text x="0" y="14.096" font-family="Segoe UI Emoji" font-size="16px" fill="#6d28d9" text-anchor="start" style="white-space: pre;" direction="ltr" dominant-baseline="alphabetic">Oracle API</text></g><g stroke-linecap="round" transform="translate(245 155) rotate(0 65 18)"><path d="M9 0 C36.9 -0.6, 55.1 0.61, 121 0 C129.76 -2.71, 130.43 6.56, 130 9 C128.42 15.07, 127.16 22.94, 130 27 C127.73 36.31, 129.22 33.97, 121 36 C83.93 35.69, 48.32 34.49, 9 36 C0.02 33.22, 0.36 35.39, 0 27 C-1.88 20.45, 1.1 21.13, 0 9 C2.2 2.24, 2.27 -0.48, 9 0" stroke="none" stroke-width="0" fill="#d0bfff"></path><path d="M9 0 C32.26 0.74, 53.48 0.94, 121 0 M9 0 C39.66 -0.34, 69.7 0.88, 121 0 M121 0 C125.7 0.53, 130.88 4.63, 130 9 M121 0 C127.2 0.56, 128.67 4.73, 130 9 M130 9 C131.3 11.34, 130.91 17.94, 130 27 M130 9 C129.46 15.73, 130.14 22.49, 130 27 M130 27 C130.6 31.4, 127.48 34.28, 121 36 M130 27 C128.31 33.06, 127.94 36.81, 121 36 M121 36 C97.9 36.89, 73.72 36.91, 9 36 M121 36 C96.63 37.79, 72.42 37.14, 9 36 M9 36 C1.11 35.71, -0.18 33.53, 0 27 M9 36 C4.83 35.98, 2.16 33.1, 0 27 M0 27 C-0.78 21.58, 1 15.3, 0 9 M0 27 C-0.56 22.6, 0.54 16.44, 0 9 M0 9 C0.44 5, 1.45 -1.31, 9 0 M0 9 C-0.62 0.93, 4.01 2.27, 9 0" stroke="#8b5cf6" stroke-width="2" fill="none"></path></g><g transform="translate(285 163) rotate(0 25 10)"><text x="0" y="14.096" font-family="Segoe UI Emoji" font-size="16px" fill="#1e1e1e" text-anchor="start" style="white-space: pre;" direction="ltr" dominant-baseline="alphabetic">Auth</text></g><g stroke-linecap="round" transform="translate(245 200) rotate(0 65 18)"><path d="M9 0 C36.9 -0.6, 55.1 0.61, 121 0 C129.76 -2.71, 130.43 6.56, 130 9 C128.42 15.07, 127.16 22.94, 130 27 C127.73 36.31, 129.22 33.97, 121 36 C83.93 35.69, 48.32 34.49, 9 36 C0.02 33.22, 0.36 35.39, 0 27 C-1.88 20.45, 1.1 21.13, 0 9 C2.2 2.24, 2.27 -0.48, 9 0" stroke="none" stroke-width="0" fill="#d0bfff"></path><path d="M9 0 C32.26 0.74, 53.48 0.94, 121 0 M9 0 C39.66 -0.34, 69.7 0.88, 121 0 M121 0 C125.7 0.53, 130.88 4.63, 130 9 M121 0 C127.2 0.56, 128.67 4.73, 130 9 M130 9 C131.3 11.34, 130.91 17.94, 130 27 M130 9 C129.46 15.73, 130.14 22.49, 130 27 M130 27 C130.6 31.4, 127.48 34.28, 121 36 M130 27 C128.31 33.06, 127.94 36.81, 121 36 M121 36 C97.9 36.89, 73.72 36.91, 9 36 M121 36 C96.63 37.79, 72.42 37.14, 9 36 M9 36 C1.11 35.71, -0.18 33.53, 0 27 M9 36 C4.83 35.98, 2.16 33.1, 0 27 M0 27 C-0.78 21.58, 1 15.3, 0 9 M0 27 C-0.56 22.6, 0.54 16.44, 0 9 M0 9 C0.44 5, 1.45 -1.31, 9 0 M0 9 C-0.62 0.93, 4.01 2.27, 9 0" stroke="#8b5cf6" stroke-width="2" fill="none"></path></g><g transform="translate(275 208) rotate(0 35 10)"><text x="0" y="14.096" font-family="Segoe UI Emoji" font-size="16px" fill="#1e1e1e" text-anchor="start" style="white-space: pre;" direction="ltr" dominant-baseline="alphabetic">Credits</text></g><g stroke-linecap="round" transform="translate(245 245) rotate(0 65 18)"><path d="M9 0 C36.9 -0.6, 55.1 0.61, 121 0 C129.76 -2.71, 130.43 6.56, 130 9 C128.42 15.07, 127.16 22.94, 130 27 C127.73 36.31, 129.22 33.97, 121 36 C83.93 35.69, 48.32 34.49, 9 36 C0.02 33.22, 0.36 35.39, 0 27 C-1.88 20.45, 1.1 21.13, 0 9 C2.2 2.24, 2.27 -0.48, 9 0" stroke="none" stroke-width="0" fill="#d0bfff"></path><path d="M9 0 C32.26 0.74, 53.48 0.94, 121 0 M9 0 C39.66 -0.34, 69.7 0.88, 121 0 M121 0 C125.7 0.53, 130.88 4.63, 130 9 M121 0 C127.2 0.56, 128.67 4.73, 130 9 M130 9 C131.3 11.34, 130.91 17.94, 130 27 M130 9 C129.46 15.73, 130.14 22.49, 130 27 M130 27 C130.6 31.4, 127.48 34.28, 121 36 M130 27 C128.31 33.06, 127.94 36.81, 121 36 M121 36 C97.9 36.89, 73.72 36.91, 9 36 M121 36 C96.63 37.79, 72.42 37.14, 9 36 M9 36 C1.11 35.71, -0.18 33.53, 0 27 M9 36 C4.83 35.98, 2.16 33.1, 0 27 M0 27 C-0.78 21.58, 1 15.3, 0 9 M0 27 C-0.56 22.6, 0.54 16.44, 0 9 M0 9 C0.44 5, 1.45 -1.31, 9 0 M0 9 C-0.62 0.93, 4.01 2.27, 9 0" stroke="#8b5cf6" stroke-width="2" fill="none"></path></g><g transform="translate(268 253) rotate(0 42 10)"><text x="0" y="14.096" font-family="Segoe UI Emoji" font-size="16px" fill="#1e1e1e" text-anchor="start" style="white-space: pre;" direction="ltr" dominant-baseline="alphabetic">Streaming</text></g><g stroke-linecap="round"><g transform="translate(135 175) rotate(0 47.5 0.2843099531332882)"><path d="M0 0 C19.86 0.77, 37.68 0.97, 95 0 M0 0 C26.04 -0.41, 51.45 0.81, 95 0" stroke="#1e1e1e" stroke-width="2" fill="none"></path></g><g transform="translate(135 175) rotate(0 47.5 0.2843099531332882)"><path d="M71.58 8.74 C77.19 7.91, 80.7 6.36, 95 0 M71.58 8.74 C78.22 5.67, 84.17 4.51, 95 0" stroke="#1e1e1e" stroke-width="2" fill="none"></path></g><g transform="translate(135 175) rotate(0 47.5 0.2843099531332882)"><path d="M71.44 -8.36 C76.94 -5.77, 80.47 -3.9, 95 0 M71.44 -8.36 C77.97 -6.78, 83.96 -3.29, 95 0" stroke="#1e1e1e" stroke-width="2" fill="none"></path></g></g><mask></mask><g transform="translate(150 155) rotate(0 40 10)"><text x="0" y="13.584" font-family="Segoe UI Emoji" font-size="14px" fill="#1e1e1e" text-anchor="start" style="white-space: pre;" direction="ltr" dominant-baseline="alphabetic">messages</text></g><g stroke-opacity="0.35" fill-opacity="0.35" stroke-linecap="round" transform="translate(470 80) rotate(0 90 115)"><path d="M32 0 C60.78 -0.63, 79.86 0.57, 148 0 C172.09 -2.71, 180.43 14.22, 180 32 C176.99 86.25, 175.6 142.5, 180 198 C177.73 222.64, 171.56 227.97, 148 230 C109.59 229.66, 72.64 228.46, 32 230 C7.68 227.22, 0.36 221.72, 0 198 C-1.17 155.21, 2.15 120.46, 0 32 C2.2 9.91, 9.94 -0.48, 32 0" stroke="none" stroke-width="0" fill="#e5dbff"></path><path d="M32 0 C56.06 0.73, 78.08 0.93, 148 0 M32 0 C63.75 -0.33, 94.87 0.89, 148 0 M148 0 C168.04 0.53, 180.88 12.29, 180 32 M148 0 C169.53 0.56, 178.67 12.4, 180 32 M180 32 C180.77 66.36, 180.33 105.44, 180 198 M180 32 C178.2 96.34, 178.95 160.73, 180 198 M180 198 C180.6 217.73, 169.82 228.28, 148 230 M180 198 C178.31 219.4, 170.27 230.81, 148 230 M148 230 C124.03 230.93, 98.99 230.95, 32 230 M148 230 C122.76 231.82, 97.69 231.18, 32 230 M32 230 C8.78 229.71, -0.18 219.86, 0 198 M32 230 C12.5 229.98, 2.16 219.43, 0 198 M0 198 C-1.93 150.11, 0.06 101.25, 0 32 M0 198 C-0.75 152.75, 0.47 105.56, 0 32 M0 32 C0.44 12.66, 9.12 -1.31, 32 0 M0 32 C-0.62 8.6, 11.68 2.27, 32 0" stroke="#8b5cf6" stroke-width="1" fill="none"></path></g><g transform="translate(500 86) rotate(0 50 10)"><text x="0" y="14.096" font-family="Segoe UI Emoji" font-size="16px" fill="#6d28d9" text-anchor="start" style="white-space: pre;" direction="ltr" dominant-baseline="alphabetic">AI Engine</text></g><g stroke-linecap="round" transform="translate(485 118) rotate(0 75 20)"><path d="M10 0 C41.86 -0.77, 64.02 0.44, 140 0 C149.43 -2.71, 150.43 6.89, 150 10 C148.24 16.75, 146.84 25.49, 150 30 C147.73 39.98, 148.89 37.97, 140 40 C96.89 39.55, 55.25 38.35, 10 40 C0.35 37.22, 0.36 39.06, 0 30 C-2.09 22.72, 1.23 23.48, 0 10 C2.2 2.58, 2.61 -0.48, 10 0" stroke="none" stroke-width="0" fill="#d0bfff"></path><path d="M10 0 C36.86 0.7, 61.68 0.9, 140 0 M10 0 C45.56 -0.27, 80.49 0.95, 140 0 M140 0 C145.37 0.53, 150.88 4.96, 150 10 M140 0 C146.87 0.56, 148.67 5.06, 150 10 M150 10 C151.44 12.6, 151.01 19.93, 150 30 M150 10 C149.4 17.47, 150.15 24.99, 150 30 M150 30 C150.6 35.07, 147.15 38.28, 140 40 M150 30 C148.31 36.73, 147.6 40.81, 140 40 M140 40 C113.02 41.07, 84.96 41.09, 10 40 M140 40 C111.74 41.95, 83.65 41.31, 10 40 M10 40 C1.45 39.71, -0.18 37.19, 0 30 M10 40 C5.16 39.98, 2.16 36.76, 0 30 M0 30 C-0.87 23.98, 1.12 17, 0 10 M0 30 C-0.62 25.11, 0.6 18.27, 0 10 M0 10 C0.44 5.33, 1.78 -1.31, 10 0 M0 10 C-0.62 1.26, 4.35 2.27, 10 0" stroke="#8b5cf6" stroke-width="2" fill="none"></path></g><g transform="translate(498 128) rotate(0 62 10)"><text x="0" y="14.096" font-family="Segoe UI Emoji" font-size="16px" fill="#1e1e1e" text-anchor="start" style="white-space: pre;" direction="ltr" dominant-baseline="alphabetic">LLM Reasoning</text></g><g stroke-linecap="round" transform="translate(485 170) rotate(0 75 20)"><path d="M10 0 C41.86 -0.77, 64.02 0.44, 140 0 C149.43 -2.71, 150.43 6.89, 150 10 C148.24 16.75, 146.84 25.49, 150 30 C147.73 39.98, 148.89 37.97, 140 40 C96.89 39.55, 55.25 38.35, 10 40 C0.35 37.22, 0.36 39.06, 0 30 C-2.09 22.72, 1.23 23.48, 0 10 C2.2 2.58, 2.61 -0.48, 10 0" stroke="none" stroke-width="0" fill="#b2f2bb"></path><path d="M10 0 C36.86 0.7, 61.68 0.9, 140 0 M10 0 C45.56 -0.27, 80.49 0.95, 140 0 M140 0 C145.37 0.53, 150.88 4.96, 150 10 M140 0 C146.87 0.56, 148.67 5.06, 150 10 M150 10 C151.44 12.6, 151.01 19.93, 150 30 M150 10 C149.4 17.47, 150.15 24.99, 150 30 M150 30 C150.6 35.07, 147.15 38.28, 140 40 M150 30 C148.31 36.73, 147.6 40.81, 140 40 M140 40 C113.02 41.07, 84.96 41.09, 10 40 M140 40 C111.74 41.95, 83.65 41.31, 10 40 M10 40 C1.45 39.71, -0.18 37.19, 0 30 M10 40 C5.16 39.98, 2.16 36.76, 0 30 M0 30 C-0.87 23.98, 1.12 17, 0 10 M0 30 C-0.62 25.11, 0.6 18.27, 0 10 M0 10 C0.44 5.33, 1.78 -1.31, 10 0 M0 10 C-0.62 1.26, 4.35 2.27, 10 0" stroke="#22c55e" stroke-width="2" fill="none"></path></g><g transform="translate(530 180) rotate(0 30 10)"><text x="0" y="14.096" font-family="Segoe UI Emoji" font-size="16px" fill="#1e1e1e" text-anchor="start" style="white-space: pre;" direction="ltr" dominant-baseline="alphabetic">Skills</text></g><g stroke-linecap="round" transform="translate(485 222) rotate(0 75 20)"><path d="M10 0 C41.86 -0.77, 64.02 0.44, 140 0 C149.43 -2.71, 150.43 6.89, 150 10 C148.24 16.75, 146.84 25.49, 150 30 C147.73 39.98, 148.89 37.97, 140 40 C96.89 39.55, 55.25 38.35, 10 40 C0.35 37.22, 0.36 39.06, 0 30 C-2.09 22.72, 1.23 23.48, 0 10 C2.2 2.58, 2.61 -0.48, 10 0" stroke="none" stroke-width="0" fill="#ffd8a8"></path><path d="M10 0 C36.86 0.7, 61.68 0.9, 140 0 M10 0 C45.56 -0.27, 80.49 0.95, 140 0 M140 0 C145.37 0.53, 150.88 4.96, 150 10 M140 0 C146.87 0.56, 148.67 5.06, 150 10 M150 10 C151.44 12.6, 151.01 19.93, 150 30 M150 10 C149.4 17.47, 150.15 24.99, 150 30 M150 30 C150.6 35.07, 147.15 38.28, 140 40 M150 30 C148.31 36.73, 147.6 40.81, 140 40 M140 40 C113.02 41.07, 84.96 41.09, 10 40 M140 40 C111.74 41.95, 83.65 41.31, 10 40 M10 40 C1.45 39.71, -0.18 37.19, 0 30 M10 40 C5.16 39.98, 2.16 36.76, 0 30 M0 30 C-0.87 23.98, 1.12 17, 0 10 M0 30 C-0.62 25.11, 0.6 18.27, 0 10 M0 10 C0.44 5.33, 1.78 -1.31, 10 0 M0 10 C-0.62 1.26, 4.35 2.27, 10 0" stroke="#f59e0b" stroke-width="2" fill="none"></path></g><g transform="translate(505 232) rotate(0 55 10)"><text x="0" y="14.096" font-family="Segoe UI Emoji" font-size="16px" fill="#1e1e1e" text-anchor="start" style="white-space: pre;" direction="ltr" dominant-baseline="alphabetic">Sub-Agents</text></g><g stroke-linecap="round" transform="translate(485 270) rotate(0 75 15)"><path d="M7.5 0 C40.46 -0.81, 63.72 0.4, 142.5 0 C150.26 -2.71, 150.43 6.06, 150 7.5 C148.68 12.56, 147.63 19.12, 150 22.5 C147.73 30.81, 149.72 27.97, 142.5 30 C97.71 29.5, 54.39 28.3, 7.5 30 C-0.48 27.22, 0.36 29.89, 0 22.5 C-1.57 17.04, 0.92 17.61, 0 7.5 C2.2 1.74, 1.77 -0.48, 7.5 0" stroke="none" stroke-width="0" fill="#ffc9c9"></path><path d="M7.5 0 C35.36 0.69, 61.18 0.89, 142.5 0 M7.5 0 C44.42 -0.25, 80.71 0.97, 142.5 0 M142.5 0 C146.2 0.53, 150.88 4.13, 150 7.5 M142.5 0 C147.7 0.56, 148.67 4.23, 150 7.5 M150 7.5 C151.08 9.45, 150.75 14.95, 150 22.5 M150 7.5 C149.55 13.11, 150.11 18.74, 150 22.5 M150 22.5 C150.6 25.9, 147.98 28.28, 142.5 30 M150 22.5 C148.31 27.56, 148.44 30.81, 142.5 30 M142.5 30 C114.44 31.12, 85.3 31.14, 7.5 30 M142.5 30 C113.16 32, 83.99 31.35, 7.5 30 M7.5 30 C0.61 29.71, -0.18 28.03, 0 22.5 M7.5 30 C4.33 29.98, 2.16 27.6, 0 22.5 M0 22.5 C-0.65 17.99, 0.84 12.75, 0 7.5 M0 22.5 C-0.47 18.83, 0.45 13.7, 0 7.5 M0 7.5 C0.44 4.5, 0.95 -1.31, 7.5 0 M0 7.5 C-0.62 0.43, 3.51 2.27, 7.5 0" stroke="#ef4444" stroke-width="2" fill="none"></path></g><g transform="translate(505 278) rotate(0 55 9)"><text x="0" y="12.584" font-family="Segoe UI Emoji" font-size="14px" fill="#1e1e1e" text-anchor="start" style="white-space: pre;" direction="ltr" dominant-baseline="alphabetic">Safety Guards</text></g><g stroke-linecap="round"><g transform="translate(390 200) rotate(0 40 0.28361046699012604)"><path d="M0 0 C16.86 0.8, 31.68 1, 80 0 M0 0 C21.96 -0.47, 43.29 0.75, 80 0" stroke="#1e1e1e" stroke-width="2" fill="none"></path></g><g transform="translate(390 200) rotate(0 40 0.28361046699012604)"><path d="M56.58 8.74 C62.19 7.91, 65.7 6.36, 80 0 M56.58 8.74 C63.22 5.67, 69.17 4.51, 80 0" stroke="#1e1e1e" stroke-width="2" fill="none"></path></g><g transform="translate(390 200) rotate(0 40 0.28361046699012604)"><path d="M56.44 -8.36 C61.94 -5.77, 65.47 -3.9, 80 0 M56.44 -8.36 C62.97 -6.78, 68.95 -3.29, 80 0" stroke="#1e1e1e" stroke-width="2" fill="none"></path></g></g><mask></mask><g stroke-linecap="round" transform="translate(190 380) rotate(0 80 25)"><path d="M12.5 0 C45.46 -0.81, 68.72 0.4, 147.5 0 C158.59 -2.71, 160.43 7.72, 160 12.5 C158.2 20.87, 156.8 31.25, 160 37.5 C157.73 49.14, 158.06 47.97, 147.5 50 C102.71 49.5, 59.39 48.3, 12.5 50 C1.18 47.22, 0.36 48.22, 0 37.5 C-2.06 29.01, 1.26 28.55, 0 12.5 C2.2 3.41, 3.44 -0.48, 12.5 0" stroke="none" stroke-width="0" fill="#b2f2bb"></path><path d="M12.5 0 C40.36 0.69, 66.18 0.89, 147.5 0 M12.5 0 C49.42 -0.25, 85.71 0.97, 147.5 0 M147.5 0 C154.54 0.53, 160.88 5.79, 160 12.5 M147.5 0 C156.03 0.56, 158.67 5.9, 160 12.5 M160 12.5 C161.42 16.19, 160.98 24.61, 160 37.5 M160 12.5 C159.36 21.92, 160.11 31.39, 160 37.5 M160 37.5 C160.6 44.23, 156.32 48.28, 147.5 50 M160 37.5 C158.31 45.9, 156.77 50.81, 147.5 50 M147.5 50 C119.44 51.12, 90.3 51.14, 12.5 50 M147.5 50 C118.16 52, 88.99 51.35, 12.5 50 M12.5 50 C2.28 49.71, -0.18 46.36, 0 37.5 M12.5 50 C6 49.98, 2.16 45.93, 0 37.5 M0 37.5 C-0.9 30.05, 1.08 21.63, 0 12.5 M0 37.5 C-0.63 31.23, 0.59 23.01, 0 12.5 M0 12.5 C0.44 6.16, 2.62 -1.31, 12.5 0 M0 12.5 C-0.62 2.1, 5.18 2.27, 12.5 0" stroke="#22c55e" stroke-width="2" fill="none"></path></g><g transform="translate(215 393) rotate(0 55 10)"><text x="0" y="14.096" font-family="Segoe UI Emoji" font-size="16px" fill="#1e1e1e" text-anchor="start" style="white-space: pre;" direction="ltr" dominant-baseline="alphabetic">Skills Registry</text></g><g stroke-linecap="round" transform="translate(380 380) rotate(0 80 25)"><path d="M12.5 0 C45.46 -0.81, 68.72 0.4, 147.5 0 C158.59 -2.71, 160.43 7.72, 160 12.5 C158.2 20.87, 156.8 31.25, 160 37.5 C157.73 49.14, 158.06 47.97, 147.5 50 C102.71 49.5, 59.39 48.3, 12.5 50 C1.18 47.22, 0.36 48.22, 0 37.5 C-2.06 29.01, 1.26 28.55, 0 12.5 C2.2 3.41, 3.44 -0.48, 12.5 0" stroke="none" stroke-width="0" fill="#ffd8a8"></path><path d="M12.5 0 C40.36 0.69, 66.18 0.89, 147.5 0 M12.5 0 C49.42 -0.25, 85.71 0.97, 147.5 0 M147.5 0 C154.54 0.53, 160.88 5.79, 160 12.5 M147.5 0 C156.03 0.56, 158.67 5.9, 160 12.5 M160 12.5 C161.42 16.19, 160.98 24.61, 160 37.5 M160 12.5 C159.36 21.92, 160.11 31.39, 160 37.5 M160 37.5 C160.6 44.23, 156.32 48.28, 147.5 50 M160 37.5 C158.31 45.9, 156.77 50.81, 147.5 50 M147.5 50 C119.44 51.12, 90.3 51.14, 12.5 50 M147.5 50 C118.16 52, 88.99 51.35, 12.5 50 M12.5 50 C2.28 49.71, -0.18 46.36, 0 37.5 M12.5 50 C6 49.98, 2.16 45.93, 0 37.5 M0 37.5 C-0.9 30.05, 1.08 21.63, 0 12.5 M0 37.5 C-0.63 31.23, 0.59 23.01, 0 12.5 M0 12.5 C0.44 6.16, 2.62 -1.31, 12.5 0 M0 12.5 C-0.62 2.1, 5.18 2.27, 12.5 0" stroke="#f59e0b" stroke-width="2" fill="none"></path></g><g transform="translate(410 393) rotate(0 50 10)"><text x="0" y="14.096" font-family="Segoe UI Emoji" font-size="16px" fill="#1e1e1e" text-anchor="start" style="white-space: pre;" direction="ltr" dominant-baseline="alphabetic">Blockchain</text></g><g stroke-linecap="round" transform="translate(570 380) rotate(0 80 25)"><path d="M12.5 0 C45.46 -0.81, 68.72 0.4, 147.5 0 C158.59 -2.71, 160.43 7.72, 160 12.5 C158.2 20.87, 156.8 31.25, 160 37.5 C157.73 49.14, 158.06 47.97, 147.5 50 C102.71 49.5, 59.39 48.3, 12.5 50 C1.18 47.22, 0.36 48.22, 0 37.5 C-2.06 29.01, 1.26 28.55, 0 12.5 C2.2 3.41, 3.44 -0.48, 12.5 0" stroke="none" stroke-width="0" fill="#c3fae8"></path><path d="M12.5 0 C40.36 0.69, 66.18 0.89, 147.5 0 M12.5 0 C49.42 -0.25, 85.71 0.97, 147.5 0 M147.5 0 C154.54 0.53, 160.88 5.79, 160 12.5 M147.5 0 C156.03 0.56, 158.67 5.9, 160 12.5 M160 12.5 C161.42 16.19, 160.98 24.61, 160 37.5 M160 12.5 C159.36 21.92, 160.11 31.39, 160 37.5 M160 37.5 C160.6 44.23, 156.32 48.28, 147.5 50 M160 37.5 C158.31 45.9, 156.77 50.81, 147.5 50 M147.5 50 C119.44 51.12, 90.3 51.14, 12.5 50 M147.5 50 C118.16 52, 88.99 51.35, 12.5 50 M12.5 50 C2.28 49.71, -0.18 46.36, 0 37.5 M12.5 50 C6 49.98, 2.16 45.93, 0 37.5 M0 37.5 C-0.9 30.05, 1.08 21.63, 0 12.5 M0 37.5 C-0.63 31.23, 0.59 23.01, 0 12.5 M0 12.5 C0.44 6.16, 2.62 -1.31, 12.5 0 M0 12.5 C-0.62 2.1, 5.18 2.27, 12.5 0" stroke="#22c55e" stroke-width="2" fill="none"></path></g><g transform="translate(583 393) rotate(0 67 10)"><text x="0" y="14.096" font-family="Segoe UI Emoji" font-size="16px" fill="#1e1e1e" text-anchor="start" style="white-space: pre;" direction="ltr" dominant-baseline="alphabetic">Encrypted Storage</text></g><g stroke-linecap="round"><g transform="translate(560 310) rotate(0 -45 35)"><path d="M0 0 C-17.72 15.15, -36.9 29.35, -90 70 M0 0 C-24.89 17.9, -49.79 38.15, -90 70" stroke="#22c55e" stroke-width="2" fill="none"></path></g><g transform="translate(560 310) rotate(0 -45 35)"><path d="M-76.92 48.69 C-78.86 53.95, -82.65 58.41, -90 70 M-76.92 48.69 C-80.47 53.65, -84.45 60.66, -90 70" stroke="#22c55e" stroke-width="2" fill="none"></path></g><g transform="translate(560 310) rotate(0 -45 35)"><path d="M-66.29 62.09 C-70.24 64.68, -76.16 66.46, -90 70 M-66.29 62.09 C-72.61 63.36, -79.48 66.73, -90 70" stroke="#22c55e" stroke-width="2" fill="none"></path></g></g><mask></mask><g stroke-linecap="round"><g transform="translate(560 310) rotate(0 -25 35)"><path d="M0 0 C-9.72 15.07, -20.9 29.27, -50 70 M0 0 C-14.01 18.05, -28.03 38.31, -50 70" stroke="#f59e0b" stroke-width="2" fill="none"></path></g><g transform="translate(560 310) rotate(0 -25 35)"><path d="M-43.62 45.83 C-44.24 51.64, -46.69 56.67, -50 70 M-43.62 45.83 C-45.37 51.59, -47.53 59.38, -50 70" stroke="#f59e0b" stroke-width="2" fill="none"></path></g><g transform="translate(560 310) rotate(0 -25 35)"><path d="M-29.58 55.58 C-32.92 59.47, -38.18 62.56, -50 70 M-29.58 55.58 C-35.06 58.64, -41.04 63.78, -50 70" stroke="#f59e0b" stroke-width="2" fill="none"></path></g></g><mask></mask><g stroke-linecap="round"><g transform="translate(590 310) rotate(0 30 35)"><path d="M0 0 C12.28 14.84, 23.1 29.04, 60 70 M0 0 C15.91 18.49, 31.81 38.75, 60 70" stroke="#22c55e" stroke-width="2" fill="none"></path></g><g transform="translate(590 310) rotate(0 30 35)"><path d="M38.05 58.03 C43.2 61.34, 46.41 63.93, 60 70 M38.05 58.03 C44.12 60.58, 49.66 65.06, 60 70" stroke="#22c55e" stroke-width="2" fill="none"></path></g><g transform="translate(590 310) rotate(0 30 35)"><path d="M50.88 46.72 C53.37 52.32, 54.02 57.18, 60 70 M50.88 46.72 C53.36 52.3, 55.41 59.85, 60 70" stroke="#22c55e" stroke-width="2" fill="none"></path></g></g><mask></mask><g transform="translate(215 460) rotate(0 225 10)"><text x="0" y="14.096" font-family="Segoe UI Emoji" font-size="16px" fill="#757575" text-anchor="start" style="white-space: pre;" direction="ltr" dominant-baseline="alphabetic">Users send messages  -&gt;  Oracle API  -&gt;  AI Engine  -&gt;  Response</text></g></svg>